<svg width="260" height="54" viewBox="0 0 260 54" fill="none" xmlns="http://www.w3.org/2000/svg">
<path d="M49.1198 19.1356L40.0406 45.1204H34.5513L45.9891 15.1411H49.4956L49.1198 19.1356ZM56.7174 45.1204L47.6169 19.1356L47.2206 15.1411H50.748L62.2274 45.1204H56.7174ZM56.2789 34.0017V38.0993H39.7482V34.0017H56.2789Z" fill="#0A0A0A"/>
<path d="M74.3539 41.5792C75.175 41.5792 75.9124 41.4211 76.5664 41.1057C77.2345 40.7759 77.7701 40.323 78.1737 39.7466C78.5909 39.1701 78.8208 38.5043 78.8623 37.7495H83.6002C83.5724 39.1908 83.1411 40.5014 82.3063 41.6821C81.4715 42.8624 80.3652 43.8028 78.9875 44.5028C77.6098 45.1893 76.0864 45.5325 74.4167 45.5325C72.6911 45.5325 71.1886 45.2441 69.9083 44.6677C68.6281 44.0773 67.5637 43.2672 66.7148 42.2379C65.8663 41.2086 65.226 40.0211 64.7947 38.6759C64.3771 37.3307 64.1685 35.8894 64.1685 34.3519V33.6312C64.1685 32.0938 64.3771 30.6525 64.7947 29.3073C65.226 27.9483 65.8663 26.7541 66.7148 25.7246C67.5637 24.6951 68.6281 23.8921 69.9083 23.3156C71.1886 22.7253 72.6843 22.4302 74.3958 22.4302C76.2048 22.4302 77.7911 22.7871 79.1547 23.5009C80.5183 24.2009 81.5895 25.1824 82.3687 26.4453C83.1621 27.6944 83.5724 29.1495 83.6002 30.8104H78.8623C78.8208 29.9868 78.6118 29.2455 78.2361 28.5866C77.8744 27.914 77.3598 27.3787 76.6917 26.9806C76.0377 26.5825 75.2516 26.3835 74.333 26.3835C73.3173 26.3835 72.4757 26.5894 71.8075 27.0012C71.1399 27.3993 70.6179 27.9483 70.2422 28.6484C69.8665 29.3347 69.595 30.1103 69.4283 30.9751C69.2753 31.8262 69.1988 32.7115 69.1988 33.6312V34.3519C69.1988 35.2716 69.2753 36.1639 69.4283 37.0288C69.5813 37.8933 69.8455 38.6692 70.2212 39.3553C70.6111 40.0278 71.1399 40.5701 71.8075 40.9821C72.4757 41.3802 73.3242 41.5792 74.3539 41.5792Z" fill="#0A0A0A"/>
<path d="M96.6869 41.5792C97.5081 41.5792 98.2454 41.4211 98.8994 41.1057C99.5675 40.7759 100.103 40.323 100.507 39.7466C100.924 39.1701 101.154 38.5043 101.195 37.7495H105.933C105.905 39.1908 105.474 40.5014 104.639 41.6821C103.805 42.8624 102.698 43.8028 101.321 44.5028C99.9433 45.1893 98.4194 45.5325 96.7497 45.5325C95.0241 45.5325 93.5216 45.2441 92.2414 44.6677C90.9611 44.0773 89.8968 43.2672 89.0478 42.2379C88.1993 41.2086 87.559 40.0211 87.1277 38.6759C86.7105 37.3307 86.5015 35.8894 86.5015 34.3519V33.6312C86.5015 32.0938 86.7105 30.6525 87.1277 29.3073C87.559 27.9483 88.1993 26.7541 89.0478 25.7246C89.8968 24.6951 90.9611 23.8921 92.2414 23.3156C93.5216 22.7253 95.0173 22.4302 96.7288 22.4302C98.5378 22.4302 100.124 22.7871 101.488 23.5009C102.851 24.2009 103.922 25.1824 104.702 26.4453C105.495 27.6944 105.905 29.1495 105.933 30.8104H101.195C101.154 29.9868 100.945 29.2455 100.569 28.5866C100.207 27.914 99.6928 27.3787 99.0247 26.9806C98.3707 26.5825 97.5846 26.3835 96.6664 26.3835C95.6503 26.3835 94.8087 26.5894 94.1405 27.0012C93.4729 27.3993 92.9509 27.9483 92.5752 28.6484C92.1995 29.3347 91.9285 30.1103 91.7613 30.9751C91.6083 31.8262 91.5318 32.7115 91.5318 33.6312V34.3519C91.5318 35.2716 91.6083 36.1639 91.7613 37.0288C91.9144 37.8933 92.1789 38.6692 92.5543 39.3553C92.9441 40.0278 93.4729 40.5701 94.1405 40.9821C94.8087 41.3802 95.6576 41.5792 96.6869 41.5792Z" fill="#0A0A0A"/>
<path d="M119.751 45.5325C118.081 45.5325 116.571 45.2648 115.222 44.7292C113.886 44.1802 112.745 43.4186 111.799 42.4437C110.866 41.4692 110.15 40.323 109.649 39.0052C109.148 37.6875 108.897 36.2668 108.897 34.7433V33.9195C108.897 32.1762 109.155 30.5976 109.669 29.1837C110.185 27.7699 110.901 26.5619 111.82 25.5599C112.738 24.5441 113.823 23.7685 115.075 23.2332C116.328 22.6979 117.684 22.4302 119.145 22.4302C120.76 22.4302 122.172 22.6979 123.383 23.2332C124.593 23.7685 125.595 24.5235 126.388 25.4981C127.195 26.459 127.794 27.6052 128.183 28.9367C128.587 30.2682 128.788 31.7369 128.788 33.343V35.4639H111.34V31.9016H123.821V31.5104C123.793 30.6182 123.612 29.7809 123.278 28.9985C122.958 28.216 122.464 27.5846 121.796 27.1042C121.128 26.6237 120.238 26.3835 119.125 26.3835C118.29 26.3835 117.545 26.5619 116.891 26.9188C116.251 27.262 115.715 27.763 115.284 28.4219C114.853 29.0808 114.519 29.877 114.283 30.8104C114.06 31.7301 113.948 32.7664 113.948 33.9195V34.7433C113.948 35.7178 114.081 36.6236 114.345 37.461C114.623 38.2846 115.027 39.0052 115.556 39.623C116.084 40.2408 116.724 40.7278 117.476 41.085C118.227 41.4278 119.083 41.5995 120.043 41.5995C121.254 41.5995 122.332 41.3595 123.278 40.8788C124.224 40.3985 125.046 39.7192 125.741 38.8404L128.392 41.373C127.905 42.073 127.272 42.7456 126.492 43.3908C125.713 44.0225 124.76 44.5374 123.633 44.9354C122.52 45.3335 121.226 45.5325 119.751 45.5325Z" fill="#0A0A0A"/>
<path d="M137.763 27.1247V53.6859H132.733V22.842H137.366L137.763 27.1247ZM152.478 33.7754V34.2077C152.478 35.8274 152.283 37.3307 151.893 38.7168C151.518 40.0898 150.954 41.2908 150.203 42.3201C149.465 43.336 148.554 44.1254 147.468 44.6883C146.383 45.2509 145.13 45.5325 143.711 45.5325C142.306 45.5325 141.075 45.2783 140.017 44.7705C138.973 44.2489 138.09 43.5143 137.366 42.5672C136.643 41.6201 136.059 40.5081 135.613 39.2317C135.182 37.9413 134.876 36.5274 134.695 34.9904V33.3224C134.876 31.6889 135.182 30.2064 135.613 28.8749C136.059 27.5434 136.643 26.3972 137.366 25.4363C138.09 24.4755 138.973 23.7342 140.017 23.2126C141.061 22.691 142.278 22.4302 143.67 22.4302C145.089 22.4302 146.348 22.7047 147.447 23.2538C148.547 23.7891 149.472 24.5578 150.224 25.5599C150.975 26.5482 151.538 27.7425 151.914 29.1426C152.29 30.529 152.478 32.0732 152.478 33.7754ZM147.447 34.2077V33.7754C147.447 32.7459 147.35 31.7918 147.155 30.9133C146.96 30.0211 146.654 29.2386 146.237 28.5661C145.82 27.8934 145.284 27.3718 144.63 27.0012C143.99 26.6168 143.218 26.4247 142.313 26.4247C141.422 26.4247 140.657 26.5757 140.017 26.8777C139.377 27.1659 138.841 27.5709 138.41 28.0925C137.979 28.6141 137.644 29.2249 137.408 29.925C137.172 30.6113 137.004 31.3594 136.907 32.1693V36.1639C137.074 37.1524 137.359 38.0581 137.763 38.8817C138.166 39.7052 138.737 40.3643 139.474 40.8586C140.226 41.3389 141.186 41.5792 142.355 41.5792C143.259 41.5792 144.031 41.3869 144.671 41.0024C145.312 40.6182 145.833 40.0898 146.237 39.4172C146.654 38.7307 146.96 37.9413 147.155 37.049C147.35 36.1568 147.447 35.2096 147.447 34.2077Z" fill="#0A0A0A"/>
<path d="M167.109 22.8417V26.4655H154.377V22.8417H167.109ZM158.051 17.3853H163.081V38.9636C163.081 39.6501 163.178 40.1785 163.373 40.5491C163.582 40.9063 163.867 41.1462 164.229 41.2698C164.591 41.3934 165.015 41.4553 165.502 41.4553C165.85 41.4553 166.184 41.4347 166.503 41.3934C166.824 41.352 167.081 41.3111 167.276 41.2698L167.297 45.0587C166.879 45.1818 166.392 45.2919 165.836 45.388C165.293 45.4841 164.667 45.5322 163.957 45.5322C162.803 45.5322 161.78 45.3332 160.889 44.9351C159.998 44.5231 159.303 43.8573 158.802 42.9376C158.301 42.0179 158.051 40.7962 158.051 39.2727V17.3853Z" fill="#0A0A0A"/>
<path d="M183.723 40.6524V30.028C183.723 29.2318 183.577 28.5455 183.285 27.9689C182.993 27.3924 182.547 26.9463 181.949 26.6306C181.365 26.3148 180.627 26.157 179.737 26.157C178.916 26.157 178.206 26.2943 177.608 26.5688C177.009 26.8433 176.543 27.214 176.21 27.6807C175.875 28.1474 175.709 28.6759 175.709 29.2661H170.699C170.699 28.3876 170.915 27.5366 171.346 26.713C171.778 25.8893 172.404 25.1549 173.225 24.5098C174.046 23.8646 175.027 23.3568 176.168 22.9861C177.309 22.6155 178.589 22.4302 180.008 22.4302C181.706 22.4302 183.208 22.7116 184.516 23.2744C185.838 23.8372 186.875 24.6882 187.627 25.8275C188.392 26.9531 188.774 28.367 188.774 30.0691V39.973C188.774 40.9889 188.844 41.9018 188.983 42.7115C189.136 43.5076 189.352 44.2009 189.63 44.7912V45.1206H184.474C184.238 44.585 184.05 43.9057 183.911 43.0821C183.786 42.2446 183.723 41.435 183.723 40.6524ZM184.454 31.5722L184.495 34.6399H180.885C179.952 34.6399 179.131 34.7293 178.422 34.9077C177.712 35.0726 177.121 35.3197 176.648 35.649C176.175 35.9784 175.82 36.3765 175.583 36.8433C175.347 37.3101 175.229 37.8384 175.229 38.4288C175.229 39.0192 175.367 39.561 175.646 40.0552C175.924 40.536 176.328 40.9134 176.856 41.1879C177.399 41.4624 178.053 41.5995 178.818 41.5995C179.848 41.5995 180.746 41.3937 181.511 40.9821C182.29 40.5562 182.902 40.0418 183.348 39.4375C183.793 38.8201 184.029 38.2365 184.057 37.6875L185.685 39.8908C185.518 40.4533 185.233 41.0576 184.83 41.7028C184.426 42.3475 183.897 42.9653 183.243 43.5557C182.603 44.1321 181.831 44.6057 180.927 44.9763C180.036 45.347 179.006 45.5325 177.837 45.5325C176.363 45.5325 175.047 45.2441 173.893 44.6677C172.738 44.0773 171.833 43.2879 171.179 42.2999C170.525 41.2975 170.198 40.1653 170.198 38.9024C170.198 37.7216 170.421 36.6784 170.866 35.7726C171.325 34.8529 171.993 34.0842 172.87 33.4665C173.76 32.8488 174.846 32.3821 176.126 32.0664C177.406 31.7369 178.867 31.5722 180.509 31.5722H184.454Z" fill="#0A0A0A"/>
<path d="M199.023 27.5983V45.1206H193.992V22.842H198.73L199.023 27.5983ZM198.125 33.1577L196.497 33.1371C196.511 31.5585 196.733 30.1103 197.165 28.7925C197.61 27.4748 198.222 26.3423 199.002 25.3952C199.794 24.448 200.741 23.7205 201.84 23.2126C202.939 22.691 204.164 22.4302 205.513 22.4302C206.599 22.4302 207.58 22.5812 208.456 22.8832C209.347 23.1714 210.105 23.645 210.731 24.3039C211.372 24.9628 211.859 25.8207 212.192 26.8777C212.527 27.9209 212.693 29.2044 212.693 30.728V45.1206H207.643V30.7074C207.643 29.6367 207.482 28.7925 207.163 28.1749C206.857 27.5434 206.404 27.0973 205.806 26.8365C205.221 26.5619 204.491 26.4247 203.614 26.4247C202.752 26.4247 201.979 26.6031 201.297 26.96C200.616 27.3169 200.038 27.8042 199.565 28.4219C199.106 29.0396 198.751 29.7534 198.501 30.5633C198.25 31.3732 198.125 32.238 198.125 33.1577Z" fill="#0A0A0A"/>
<path d="M227.053 41.5792C227.874 41.5792 228.612 41.4211 229.266 41.1057C229.933 40.7759 230.469 40.323 230.872 39.7466C231.29 39.1701 231.52 38.5043 231.562 37.7495H236.299C236.272 39.1908 235.84 40.5014 235.005 41.6821C234.17 42.8624 233.064 43.8028 231.687 44.5028C230.309 45.1893 228.786 45.5325 227.116 45.5325C225.39 45.5325 223.887 45.2441 222.607 44.6677C221.327 44.0773 220.263 43.2672 219.414 42.2379C218.565 41.2086 217.925 40.0211 217.494 38.6759C217.076 37.3307 216.868 35.8894 216.868 34.3519V33.6312C216.868 32.0938 217.076 30.6525 217.494 29.3073C217.925 27.9483 218.565 26.7541 219.414 25.7246C220.263 24.6951 221.327 23.8921 222.607 23.3156C223.887 22.7253 225.383 22.4302 227.095 22.4302C228.904 22.4302 230.49 22.7871 231.853 23.5009C233.217 24.2009 234.289 25.1824 235.068 26.4453C235.861 27.6944 236.272 29.1495 236.299 30.8104H231.562C231.52 29.9868 231.311 29.2455 230.935 28.5866C230.574 27.914 230.059 27.3787 229.391 26.9806C228.737 26.5825 227.95 26.3835 227.032 26.3835C226.017 26.3835 225.174 26.5894 224.507 27.0012C223.839 27.3993 223.317 27.9483 222.941 28.6484C222.566 29.3347 222.294 30.1103 222.127 30.9751C221.974 31.8262 221.898 32.7115 221.898 33.6312V34.3519C221.898 35.2716 221.974 36.1639 222.127 37.0288C222.281 37.8933 222.545 38.6692 222.92 39.3553C223.31 40.0278 223.839 40.5701 224.507 40.9821C225.174 41.3802 226.023 41.5792 227.053 41.5792Z" fill="#0A0A0A"/>
<path d="M250.117 45.5325C248.447 45.5325 246.937 45.2648 245.587 44.7292C244.252 44.1802 243.111 43.4186 242.164 42.4437C241.232 41.4692 240.516 40.323 240.015 39.0052C239.514 37.6875 239.263 36.2668 239.263 34.7433V33.9195C239.263 32.1762 239.521 30.5976 240.036 29.1837C240.55 27.7699 241.267 26.5619 242.185 25.5599C243.104 24.5441 244.189 23.7685 245.441 23.2332C246.694 22.6979 248.05 22.4302 249.511 22.4302C251.126 22.4302 252.538 22.6979 253.748 23.2332C254.959 23.7685 255.961 24.5235 256.754 25.4981C257.561 26.459 258.159 27.6052 258.549 28.9367C258.953 30.2682 259.154 31.7369 259.154 33.343V35.4639H241.705V31.9016H254.187V31.5104C254.159 30.6182 253.978 29.7809 253.644 28.9985C253.324 28.216 252.83 27.5846 252.162 27.1042C251.494 26.6237 250.604 26.3835 249.491 26.3835C248.656 26.3835 247.911 26.5619 247.257 26.9188C246.617 27.262 246.082 27.763 245.65 28.4219C245.219 29.0808 244.885 29.877 244.648 30.8104C244.426 31.7301 244.314 32.7664 244.314 33.9195V34.7433C244.314 35.7178 244.447 36.6236 244.711 37.461C244.989 38.2846 245.393 39.0052 245.921 39.623C246.45 40.2408 247.09 40.7278 247.842 41.085C248.593 41.4278 249.449 41.5995 250.409 41.5995C251.62 41.5995 252.698 41.3595 253.644 40.8788C254.59 40.3985 255.411 39.7192 256.107 38.8404L258.758 41.373C258.27 42.073 257.637 42.7456 256.858 43.3908C256.079 44.0225 255.126 44.5374 253.999 44.9354C252.886 45.3335 251.591 45.5325 250.117 45.5325Z" fill="#0A0A0A"/>
<path fill-rule="evenodd" clip-rule="evenodd" d="M0 45.1204V25.9431L11.1139 15.1807V23.5352L5.55733 29.5495H11.1139V45.1204H0Z" fill="#143F34"/>
<path fill-rule="evenodd" clip-rule="evenodd" d="M15.3887 45.1205V29.6696H20.9456L15.3887 23.7015V10.6793L26.5026 0V45.1205H15.3887Z" fill="#47B782"/>
</svg>
