<svg width="48" height="48" viewBox="0 0 48 48" fill="none" xmlns="http://www.w3.org/2000/svg">
<path fill-rule="evenodd" clip-rule="evenodd" d="M23.9999 25.4139L29.6569 31.0709C29.8455 31.2531 30.0982 31.3539 30.3603 31.3516C30.6225 31.3493 30.8734 31.2441 31.0588 31.0587C31.2442 30.8733 31.3493 30.6225 31.3516 30.3603C31.3539 30.0981 31.2531 29.8455 31.0709 29.6569L25.4139 23.9999L31.0709 18.3429C31.2531 18.1543 31.3539 17.9017 31.3516 17.6395C31.3493 17.3773 31.2442 17.1265 31.0588 16.9411C30.8734 16.7557 30.6225 16.6505 30.3603 16.6482C30.0982 16.646 29.8455 16.7467 29.6569 16.9289L23.9999 22.5859L18.3429 16.9289C18.1535 16.7512 17.9024 16.6543 17.6427 16.6585C17.383 16.6627 17.1351 16.7678 16.9516 16.9515C16.768 17.1352 16.6631 17.3831 16.659 17.6428C16.655 17.9025 16.7522 18.1536 16.9299 18.3429L22.5859 23.9999L16.9289 29.6569C16.8334 29.7492 16.7573 29.8595 16.7048 29.9815C16.6524 30.1035 16.6248 30.2347 16.6237 30.3675C16.6225 30.5003 16.6478 30.632 16.6981 30.7549C16.7484 30.8778 16.8227 30.9894 16.9166 31.0833C17.0104 31.1772 17.1221 31.2514 17.245 31.3017C17.3679 31.352 17.4996 31.3773 17.6323 31.3762C17.7651 31.375 17.8963 31.3474 18.0183 31.295C18.1404 31.2426 18.2507 31.1664 18.3429 31.0709L23.9999 25.4139Z" fill="#143F34"/>
</svg>
