<svg width="32" height="33" viewBox="0 0 32 33" fill="none" xmlns="http://www.w3.org/2000/svg">
<rect y="0.85498" width="32" height="32" rx="16" fill="#47B782"/>
<g clip-path="url(#clip0_2105_693)">
<path d="M20.0001 12.188C20.1769 12.188 20.3465 12.2582 20.4715 12.3833C20.5965 12.5083 20.6668 12.6778 20.6668 12.8547V18.188C20.6668 18.3648 20.5965 18.5344 20.4715 18.6594C20.3465 18.7844 20.1769 18.8547 20.0001 18.8547C19.8233 18.8547 19.6537 18.7844 19.5287 18.6594C19.4037 18.5344 19.3335 18.3648 19.3335 18.188V14.464L12.7001 21.0973C12.5744 21.2188 12.406 21.286 12.2312 21.2844C12.0564 21.2829 11.8892 21.2128 11.7656 21.0892C11.642 20.9656 11.5719 20.7984 11.5703 20.6236C11.5688 20.4488 11.636 20.2804 11.7575 20.1547L18.3908 13.5213H14.6668C14.49 13.5213 14.3204 13.4511 14.1954 13.3261C14.0704 13.201 14.0001 13.0315 14.0001 12.8547C14.0001 12.6778 14.0704 12.5083 14.1954 12.3833C14.3204 12.2582 14.49 12.188 14.6668 12.188H20.0001Z" fill="white"/>
</g>
<defs>
<clipPath id="clip0_2105_693">
<rect width="16" height="16" fill="white" transform="translate(8 8.85498)"/>
</clipPath>
</defs>
</svg>
